<?xml version="1.0" encoding="utf-8"?>
<!-- Generator: Adobe Illustrator 24.0.0, SVG Export Plug-In . SVG Version: 6.00 Build 0)  -->
<svg version="1.1" id="Layer_1" xmlns="http://www.w3.org/2000/svg" xmlns:xlink="http://www.w3.org/1999/xlink" x="0px" y="0px"
	 viewBox="0 0 40 40" style="enable-background:new 0 0 40 40;" xml:space="preserve">
<g>
	<path style="fill:#225982;" d="M32.91,27.31c-0.18-0.37-0.5-0.48-0.89-0.48c-4.68,0-9.35,0-14.03,0c-0.16,0-0.28,0-0.35-0.21
		c-0.49-1.39-1.74-2.28-3.18-2.28c-1.45,0-2.69,0.88-3.18,2.28c-0.06,0.16-0.13,0.21-0.29,0.21c-0.77-0.01-1.54-0.01-2.32,0
		c-0.57,0-0.94,0.34-0.95,0.84c0,0.5,0.38,0.85,0.94,0.85c0.77,0,1.54,0.01,2.32,0c0.18,0,0.25,0.06,0.31,0.23
		C11.75,30.1,13.02,31,14.45,31c1.44,0,2.71-0.89,3.18-2.25c0.07-0.2,0.16-0.24,0.35-0.24c2.34,0.01,4.68,0,7.03,0c0,0,0,0,0,0
		c1.27,0,2.54,0,3.82,0c1.1,0,2.19,0,3.29,0C32.78,28.51,33.19,27.88,32.91,27.31z M14.47,29.36c-0.93,0.01-1.69-0.75-1.69-1.68
		c0-0.94,0.75-1.69,1.69-1.69c0.92,0,1.68,0.75,1.68,1.67C16.14,28.6,15.4,29.35,14.47,29.36z"/>
	<path style="fill:#225982;" d="M8.66,13.35c0.76,0,1.53,0.01,2.29,0c0.18,0,0.27,0.04,0.34,0.23c0.48,1.37,1.73,2.26,3.17,2.26
		c1.44,0,2.69-0.88,3.17-2.25c0.06-0.18,0.15-0.23,0.33-0.23c2.35,0.01,4.7,0,7.06,0c0,0,0,0,0,0c1.18,0,2.35,0,3.53,0
		c1.19,0,2.39,0,3.58,0c0.5,0,0.86-0.36,0.86-0.84c0-0.47-0.36-0.83-0.86-0.84c-0.13,0-0.26,0-0.39,0c-4.59,0-9.18,0-13.77,0
		c-0.16,0-0.26-0.02-0.33-0.2c-0.49-1.4-1.74-2.28-3.18-2.28c-1.46,0-2.69,0.89-3.2,2.3c-0.05,0.14-0.11,0.19-0.26,0.18
		c-0.78-0.01-1.56,0-2.34,0c-0.56,0-0.94,0.34-0.94,0.84C7.72,13,8.1,13.35,8.66,13.35z M14.48,10.82c0.93,0.01,1.67,0.78,1.66,1.71
		c-0.01,0.93-0.78,1.67-1.72,1.66c-0.93-0.02-1.66-0.78-1.65-1.72C12.79,11.56,13.56,10.81,14.48,10.82z"/>
	<path style="fill:#225982;" d="M32.1,19.25c-1.34,0-2.69,0-4.03,0c-0.17,0-0.26-0.03-0.32-0.21c-0.49-1.39-1.72-2.27-3.19-2.27
		c-1.43-0.01-2.68,0.88-3.17,2.26c-0.07,0.19-0.16,0.23-0.34,0.23c-2.07-0.01-4.14,0-6.21,0c-0.91,0-1.83,0-2.74,0
		c-1.18,0-2.35,0-3.53,0c-0.47,0-0.83,0.34-0.86,0.79C7.7,20.47,8,20.85,8.43,20.92c0.11,0.02,0.23,0.01,0.34,0.01
		c4.08,0,8.16,0,12.24-0.01c0.24,0,0.32,0.08,0.4,0.29c0.49,1.34,1.76,2.21,3.16,2.2c1.44-0.01,2.68-0.88,3.16-2.24
		c0.07-0.21,0.17-0.25,0.37-0.25c1.33,0.01,2.65,0.01,3.98,0c0.49,0,0.83-0.28,0.9-0.72C33.07,19.69,32.67,19.25,32.1,19.25z
		 M24.55,21.77c-0.91-0.01-1.66-0.76-1.66-1.69c0-0.93,0.76-1.69,1.69-1.68c0.94,0.01,1.68,0.76,1.68,1.7
		C26.25,21.03,25.49,21.78,24.55,21.77z"/>
</g>
</svg>
